<svg width="1280" height="720" viewBox="0 0 1280 720" fill="none" xmlns="http://www.w3.org/2000/svg">
<rect width="1280" height="720" fill="#F5F5F5"/>
<g clip-path="url(#clip0_0_1)">
<rect width="1280" height="720" fill="#FBF6F6"/>
<rect width="379" height="720" rx="23" fill="#222222"/>
<rect y="16" width="409" height="688" rx="23" fill="#ADABAB"/>
<rect x="12" y="16" width="1268" height="688" fill="#FFFEFE"/>
<rect x="638" y="250" width="634" height="214" rx="23" fill="#F7F3F3"/>
<rect x="12" y="250" width="605" height="39" rx="19.5" fill="#F7F3F3"/>
<rect x="638" y="476" width="312" height="214" rx="23" fill="#F7F3F3"/>
<rect x="1018" y="79" width="226" height="145" rx="23" fill="#F7F3F3"/>
<rect x="58" y="448" width="149" height="100" rx="23" fill="#F7F3F3"/>
<rect x="960" y="476" width="312" height="214" rx="23" fill="#F7F3F3"/>
<ellipse cx="52.5" cy="498.5" rx="40.5" ry="38.5" fill="white"/>
<rect x="775" y="79" width="226" height="145" rx="23" fill="#F7F3F3"/>
<rect x="532" y="79" width="226" height="145" rx="23" fill="#F7F3F3"/>
<rect x="289" y="79" width="227" height="145" rx="23" fill="#F7F3F3"/>
<ellipse cx="315" cy="194.5" rx="29" ry="29.5" fill="white"/>
<ellipse cx="557" cy="194.5" rx="29" ry="29.5" fill="white"/>
<ellipse cx="799" cy="194.5" rx="29" ry="29.5" fill="white"/>
<ellipse cx="1042" cy="198.5" rx="29" ry="29.5" fill="white"/>
<rect x="46" y="79" width="228" height="145" rx="23" fill="#F7F3F3"/>
<ellipse cx="62" cy="198.5" rx="29" ry="29.5" fill="white"/>
<rect x="46" y="569" width="261" height="100" rx="23" fill="#F7F3F3"/>
<rect x="356" y="569" width="261" height="100" rx="23" fill="#F7F3F3"/>
<rect x="262" y="454" width="149" height="100" rx="23" fill="#F7F3F3"/>
<ellipse cx="247" cy="504.5" rx="40" ry="38.5" fill="white"/>
<rect x="468" y="448" width="149" height="100" rx="23" fill="#F7F3F3"/>
<ellipse cx="456.5" cy="498.5" rx="40.5" ry="38.5" fill="white"/>
<ellipse cx="53" cy="618.5" rx="41" ry="38.5" fill="white"/>
<ellipse cx="348" cy="621.5" rx="41" ry="38.5" fill="white"/>
</g>
<defs>
<clipPath id="clip0_0_1">
<rect width="1280" height="720" fill="white"/>
</clipPath>
</defs>
</svg>
